<svg width="16" height="16" viewBox="0 0 16 16" fill="none" xmlns="http://www.w3.org/2000/svg">
<path d="M14.6667 5.51325V2.81992C14.6667 1.75992 14.24 1.33325 13.18 1.33325H10.4867C9.42667 1.33325 9 1.75992 9 2.81992V5.51325C9 6.57325 9.42667 6.99992 10.4867 6.99992H13.18C14.24 6.99992 14.6667 6.57325 14.6667 5.51325Z" stroke="#081F55" stroke-width="1.5" stroke-linecap="round" stroke-linejoin="round"/>
<path d="M7.00065 5.67992V2.65325C7.00065 1.71325 6.57398 1.33325 5.51398 1.33325H2.82065C1.76065 1.33325 1.33398 1.71325 1.33398 2.65325V5.67325C1.33398 6.61992 1.76065 6.99325 2.82065 6.99325H5.51398C6.57398 6.99992 7.00065 6.61992 7.00065 5.67992Z" stroke="#081F55" stroke-width="1.5" stroke-linecap="round" stroke-linejoin="round"/>
<path d="M7.00065 13.18V10.4867C7.00065 9.42667 6.57398 9 5.51398 9H2.82065C1.76065 9 1.33398 9.42667 1.33398 10.4867V13.18C1.33398 14.24 1.76065 14.6667 2.82065 14.6667H5.51398C6.57398 14.6667 7.00065 14.24 7.00065 13.18Z" stroke="#081F55" stroke-width="1.5" stroke-linecap="round" stroke-linejoin="round"/>
<path d="M10 10.3333H14" stroke="#081F55" stroke-width="1.5" stroke-linecap="round"/>
<path d="M10 13H14" stroke="#081F55" stroke-width="1.5" stroke-linecap="round"/>
</svg>
